<svg width="186" height="171" viewBox="0 0 186 171" fill="none" xmlns="http://www.w3.org/2000/svg">
<ellipse cx="58.5" cy="147.5" rx="58.5" ry="11.5" fill="#FFD3F8"/>
<ellipse cx="74.5" cy="159.5" rx="58.5" ry="11.5" fill="#FFD3F8"/>
<ellipse cx="94.5" cy="148.5" rx="58.5" ry="11.5" fill="#FFD3F8"/>
<path fill-rule="evenodd" clip-rule="evenodd" d="M69.8192 71.2073L177.172 5.78694C180.184 3.95149 183.925 6.62933 183.158 10.0721L157.528 125.17C157.528 125.17 142.766 103.862 119.634 89.6307C96.5033 75.3992 69.8192 71.2073 69.8192 71.2073Z" fill="url(#paint0_linear_0_1915)"/>
<path fill-rule="evenodd" clip-rule="evenodd" d="M69.8192 71.2073L177.172 5.78694C180.184 3.95149 183.925 6.62933 183.158 10.0721L157.528 125.17C157.528 125.17 142.766 103.862 119.634 89.6307C96.5033 75.3992 69.8192 71.2073 69.8192 71.2073Z" fill="url(#paint1_linear_0_1915)" style="mix-blend-mode:overlay"/>
<mask id="mask0_0_1915" style="mask-type:luminance" maskUnits="userSpaceOnUse" x="69" y="5" width="115" height="121">
<path fill-rule="evenodd" clip-rule="evenodd" d="M69.8192 71.2073L177.172 5.78694C180.184 3.95149 183.925 6.62933 183.158 10.0721L157.528 125.17C157.528 125.17 142.766 103.862 119.634 89.6307C96.5033 75.3992 69.8192 71.2073 69.8192 71.2073Z" fill="white"/>
<path fill-rule="evenodd" clip-rule="evenodd" d="M69.8192 71.2073L177.172 5.78694C180.184 3.95149 183.925 6.62933 183.158 10.0721L157.528 125.17C157.528 125.17 142.766 103.862 119.634 89.6307C96.5033 75.3992 69.8192 71.2073 69.8192 71.2073Z" stroke="white"/>
</mask>
<g mask="url(#mask0_0_1915)">
<g style="mix-blend-mode:soft-light">
<path d="M114 43C114 43 151.33 37.8681 170.252 77.8711" stroke="#8C4545" stroke-width="3"/>
</g>
<g style="mix-blend-mode:soft-light">
<path d="M98 54C98 54 144.261 49.7632 167 103" stroke="#8C4545" stroke-width="3"/>
</g>
<g style="mix-blend-mode:soft-light">
<path d="M126 31C126 31 163.819 22.526 182.252 65.8711" stroke="#8C4545" stroke-width="3"/>
</g>
<g style="mix-blend-mode:soft-light">
<path d="M134.367 20.1569C134.367 20.1569 177.729 10.6248 190.741 53.7431" stroke="#8C4545" stroke-width="3"/>
</g>
<g style="mix-blend-mode:soft-light">
<path d="M158.626 10.9356C158.626 10.9356 184.551 5.56607 189.626 31.9356" stroke="#8C4545" stroke-width="3"/>
</g>
<g style="mix-blend-mode:soft-light">
<path d="M125.813 92.2023C125.813 90.626 126.622 56.5224 107 37" stroke="#8C4545" stroke-width="3"/>
</g>
<g style="mix-blend-mode:soft-light">
<path d="M146.813 90.2023C146.813 88.626 147.622 54.5224 128 35" stroke="#8C4545" stroke-width="3"/>
</g>
<g style="mix-blend-mode:soft-light">
<path d="M166.994 90.2023C166.994 88.369 167.983 48.7052 144 26" stroke="#8C4545" stroke-width="3"/>
</g>
<g style="mix-blend-mode:soft-light">
<path d="M179.994 74.2023C179.994 72.369 180.983 32.7052 157 10" stroke="#8C4545" stroke-width="3"/>
</g>
</g>
<circle cx="94.5" cy="98.5" r="37.5" fill="url(#paint2_linear_0_1915)"/>
<ellipse cx="94.7896" cy="122.036" rx="48.3175" ry="29.9637" fill="url(#paint3_linear_0_1915)"/>
<circle cx="122.5" cy="112.5" r="37.5" fill="url(#paint4_linear_0_1915)"/>
<path d="M96.33 122.061C98.3861 126.941 101.326 128.055 104.25 128.942" stroke="#ADFFFC" stroke-width="4" stroke-linecap="round" stroke-linejoin="round"/>
<path d="M39.8212 157.761C35.2428 155.477 32.9152 156.283 30.7588 157.24" stroke="#ADFFFC" stroke-width="4" stroke-linecap="round" stroke-linejoin="round"/>
<path d="M74.9402 96.7786C78.226 96.6153 79.5008 95.136 80.6398 93.6173" stroke="white" stroke-width="4" stroke-linecap="round" stroke-linejoin="round"/>
<path d="M93.3057 149.349C94.1223 149.577 95.2027 149.456 96.2743 149.318" stroke="white" stroke-width="4" stroke-linecap="round" stroke-linejoin="round"/>
<path d="M86.7367 71.94C85.3383 74.9179 86.0459 76.7379 86.8521 78.4566" stroke="#C4A2FF" stroke-width="4" stroke-linecap="round" stroke-linejoin="round"/>
<path d="M110.745 159.831C109.572 159.547 109.182 159.742 108.844 159.959" stroke="#C4A2FF" stroke-width="4" stroke-linecap="round" stroke-linejoin="round"/>
<path d="M66.8036 123.6C61.888 125.571 60.7229 128.49 59.7852 131.399" stroke="#FFA6EA" stroke-width="4" stroke-linecap="round" stroke-linejoin="round"/>
<path d="M118.621 99.6439C116.044 101.843 115.934 103.471 115.959 105.033" stroke="#D6FFA9" stroke-width="4" stroke-linecap="round" stroke-linejoin="round"/>
<path d="M38.5568 142.859C40.9205 143.744 42.0206 143.228 43.0291 142.648" stroke="#D6FFA9" stroke-width="4" stroke-linecap="round" stroke-linejoin="round"/>
<path d="M143.03 113.813C139.52 112.138 137.762 112.782 136.136 113.537" stroke="#FFAFAF" stroke-width="4" stroke-linecap="round" stroke-linejoin="round"/>
<path d="M65.3085 158.16C66.7786 159.346 68.8285 159.557 70.866 159.711" stroke="#FFAFAF" stroke-width="4" stroke-linecap="round" stroke-linejoin="round"/>
<rect x="70" y="98" width="8" height="22" rx="4" fill="#746CA0"/>
<rect x="94" y="98" width="8" height="22" rx="4" fill="#746CA0"/>
<path d="M78.5 132.5C78.5 132.5 82.9717 129.5 87.4797 129.5C91.9878 129.5 96.52 132.5 96.52 132.5" stroke="#746CA0" stroke-width="3" stroke-linecap="round" stroke-linejoin="round"/>
<defs>
<linearGradient id="paint0_linear_0_1915" x1="93.5341" y1="46.5602" x2="156.256" y2="115.151" gradientUnits="userSpaceOnUse">
<stop stop-color="#FFF2D2"/>
<stop offset="1" stop-color="#FFE0A6"/>
</linearGradient>
<linearGradient id="paint1_linear_0_1915" x1="126.15" y1="26.2848" x2="97.0601" y2="58.0535" gradientUnits="userSpaceOnUse">
<stop stop-opacity="0.01"/>
<stop offset="1"/>
</linearGradient>
<linearGradient id="paint2_linear_0_1915" x1="24.6535" y1="115.031" x2="80.1563" y2="154.282" gradientUnits="userSpaceOnUse">
<stop stop-color="#FFEFFD"/>
<stop offset="1" stop-color="#FFDBF9"/>
</linearGradient>
<linearGradient id="paint3_linear_0_1915" x1="8.11758" y1="126.112" x2="47.6424" y2="178.483" gradientUnits="userSpaceOnUse">
<stop stop-color="#FFEFFD"/>
<stop offset="1" stop-color="#FFDBF9"/>
</linearGradient>
<linearGradient id="paint4_linear_0_1915" x1="59.147" y1="110.188" x2="105.532" y2="152.613" gradientUnits="userSpaceOnUse">
<stop stop-color="#FFEFFD"/>
<stop offset="1" stop-color="#FFDBF9"/>
</linearGradient>
</defs>
</svg>
