<svg width="11" height="15" viewBox="0 0 11 15" fill="none" xmlns="http://www.w3.org/2000/svg">
<path d="M5.49997 14.9286C4.50757 14.0352 3.5877 13.0559 2.74999 12.0007C1.49285 10.4161 6.94303e-07 8.05621 6.94303e-07 5.80744C-0.00111357 3.45878 1.33904 1.34089 3.39511 0.442051C5.45117 -0.456789 7.81787 0.0405914 9.39081 1.7021C10.4252 2.78885 11.0046 4.26712 11 5.80744C11 8.05621 9.5071 10.4161 8.24996 12.0007C7.41225 13.0559 6.49238 14.0352 5.49997 14.9286ZM5.49997 1.66147C3.33137 1.66421 1.57402 3.51882 1.57142 5.80744C1.57142 6.77428 1.98549 8.44842 3.95605 10.9368C4.44173 11.5488 4.95706 12.1339 5.49997 12.6897C6.04293 12.1346 6.55851 11.5503 7.04468 10.9393C9.01445 8.44759 9.42852 6.77345 9.42852 5.80744C9.42593 3.51882 7.66858 1.66421 5.49997 1.66147ZM5.49997 8.29502C4.19817 8.29502 3.14284 7.18129 3.14284 5.80744C3.14284 4.43358 4.19817 3.31985 5.49997 3.31985C6.80178 3.31985 7.8571 4.43358 7.8571 5.80744C7.8571 6.46718 7.60876 7.09991 7.16672 7.56642C6.72467 8.03294 6.12512 8.29502 5.49997 8.29502Z" fill="#C4C4C4"/>
</svg>
